PathFileType	4	(X/Y/Z)	C:/Users/opensim2020/Desktop/walking_exp_matlab/subject01_walking14_straight_02.trc	
DataRate	CameraRate	NumFrames	NumMarkers	Units	OrigDataRate	OrigDataStartFrame	OrigNumFrames	
100.00	100.00	7	42	mm	100.00	1240	125	
Frame#	Time	LFHD			RFHD			LBHD			RBHD			C7			T10			CLAV			STRN			RBAK			LSHO			LUPA			LELB			LFRM			LWRA			LWRB			LFIN			RSHO			RUPA			RELB			RFRM			RWRA			RWRB			RFIN			LASI			RASI			LPSI			RPSI			LTHI			LKNE			LTIB			LANK			LHEE			LTOE			RTHI			RKNE			RTIB			RANK			RHEE			RTOE			*39			*40			*41			
		X1	Y1	Z1	X2	Y2	Z2	X3	Y3	Z3	X4	Y4	Z4	X5	Y5	Z5	X6	Y6	Z6	X7	Y7	Z7	X8	Y8	Z8	X9	Y9	Z9	X10	Y10	Z10	X11	Y11	Z11	X12	Y12	Z12	X13	Y13	Z13	X14	Y14	Z14	X15	Y15	Z15	X16	Y16	Z16	X17	Y17	Z17	X18	Y18	Z18	X19	Y19	Z19	X20	Y20	Z20	X21	Y21	Z21	X22	Y22	Z22	X23	Y23	Z23	X24	Y24	Z24	X25	Y25	Z25	X26	Y26	Z26	X27	Y27	Z27	X28	Y28	Z28	X29	Y29	Z29	X30	Y30	Z30	X31	Y31	Z31	X32	Y32	Z32	X33	Y33	Z33	X34	Y34	Z34	X35	Y35	Z35	X36	Y36	Z36	X37	Y37	Z37	X38	Y38	Z38	X39	Y39	Z39	X40	Y40	Z40	X41	Y41	Z41	X42	Y42	Z42	

94	0.930	-1045.26038	-245.99367	1661.45581	-1138.02271	-311.60977	1665.00000	-1111.60510	-143.94232	1630.62195	-1209.82959	-211.31882	1633.60742	-1140.54382	-102.01180	1436.68835	-1139.55615	-53.51668	1142.78418	-1121.35791	-243.97308	1361.23523	-1116.77405	-278.58301	1206.91760	-1221.63770	-46.77197	1247.04260	-969.50079	-164.94450	1395.27734	-889.00238	-97.27838	1220.54065	-892.92645	-54.64116	1075.88049	-865.91425	-71.79321	962.59918	-872.23816	-132.71593	835.57129	-861.08923	-74.41956	840.18433	-842.63354	-103.84908	763.53937	-1276.09753	-196.47278	1404.27722	-1390.55603	-146.83876	1214.14075	-1407.90125	-161.74380	1087.51367	-1428.69519	-245.86290	993.58282	-1396.25085	-372.49619	937.87317	-1434.44043	-338.39871	912.98999	-1432.95764	-412.23380	869.85889	-1026.14563	-230.86050	936.47028	-1244.69299	-225.43706	935.61902	-1071.62573	-44.89936	943.92230	-1214.59521	-41.11366	956.98602	-964.07935	-291.48724	618.67792	-985.49115	-318.75940	487.86499	-984.68365	-292.86453	300.84723	-1041.34668	-312.91910	80.13659	-1104.39758	-283.50299	45.87802	-1015.17993	-454.35699	66.00127	-1294.04956	-113.84111	610.32721	-1268.66638	-89.36678	451.43369	-1271.18262	2.21685	299.94360	-1220.75623	72.10400	104.35890	-1170.25122	127.42510	81.06889	-1216.36292	-55.89455	34.31977	-1121.72949	-294.64154	1699.62048	-3101.96899	1973.18823	1023.56842	-3140.69629	2012.51013	1021.94391 
95	0.940	-1043.04199	-258.64267	1659.96912	-1135.51672	-324.67661	1663.81848	-1109.58484	-156.82281	1628.92932	-1207.75500	-224.60287	1632.40466	-1139.42236	-115.03779	1435.43933	-1138.19592	-66.82592	1141.42944	-1119.79041	-257.27753	1359.78711	-1115.79309	-291.82626	1205.44324	-1220.55994	-60.11688	1245.87854	-967.92474	-178.13234	1393.54089	-888.15613	-109.29251	1218.96570	-893.02490	-65.58315	1075.08447	-866.18622	-79.38324	961.54028	-872.56622	-136.73962	832.80750	-861.64044	-78.39680	839.05524	-843.17822	-105.49277	761.45270	-1274.52747	-209.89207	1403.37500	-1389.73291	-160.58286	1213.75806	-1407.74084	-175.74651	1087.29761	-1427.70532	-262.41049	995.60645	-1394.89880	-390.46304	943.98712	-1433.33911	-357.59647	918.19867	-1431.02563	-432.61960	876.95886	-1026.07349	-245.20532	934.94244	-1244.55310	-238.19733	934.41327	-1070.28369	-58.84912	942.69678	-1213.17371	-54.02770	956.27240	-964.02472	-302.40802	615.44635	-986.57288	-331.57581	485.82556	-985.01764	-314.35806	298.92810	-1040.96338	-347.28735	78.76894	-1103.82178	-319.51367	42.67941	-1015.57611	-489.67554	72.42661	-1294.53284	-122.33467	610.66284	-1268.89661	-96.07328	451.61206	-1271.33875	-2.19570	301.46777	-1221.17590	70.55164	106.73664	-1170.85925	126.17348	84.56516	-1216.41296	-56.17274	34.30376	-1119.32410	-307.59158	1698.57178	-3102.02441	1973.17004	1023.45111	-3140.66016	2012.56360	1022.13599 
96	0.950	-1040.69641	-271.34705	1658.45056	-1132.95129	-337.63672	1662.63354	-1107.61035	-169.75705	1627.34302	-1205.55481	-237.85060	1631.11157	-1137.25525	-128.36897	1433.81421	-1136.69678	-80.23384	1139.86304	-1118.22668	-270.69989	1358.28113	-1114.64246	-305.16992	1204.02576	-1219.25330	-73.52689	1244.52905	-966.20532	-191.37181	1391.74133	-887.11737	-121.32399	1217.29102	-892.93890	-76.30608	1074.15283	-866.33844	-87.24902	960.38995	-872.87421	-141.22285	830.09271	-862.20319	-82.97942	837.94684	-843.70184	-107.74128	759.70428	-1272.81824	-223.31706	1402.33569	-1388.75110	-174.29395	1213.26709	-1407.36047	-189.68585	1086.93970	-1426.91028	-278.60983	997.64331	-1393.59290	-408.02646	949.81445	-1431.83667	-375.84390	922.79047	-1429.14319	-452.30222	883.73615	-1025.96106	-259.73221	933.36829	-1244.41406	-251.12776	933.01422	-1068.90271	-72.96310	941.39490	-1211.58362	-67.63376	955.27710	-963.18958	-313.24445	611.93744	-987.46851	-344.96878	483.97629	-985.22754	-335.67490	297.43033	-1040.61243	-378.95941	78.57326	-1103.49744	-352.74368	40.97286	-1015.90979	-521.88025	78.50967	-1294.48938	-131.50880	610.69806	-1269.25671	-103.52299	451.59280	-1271.64844	-7.08671	302.98346	-1221.86292	68.69299	109.07787	-1171.92163	124.72759	88.34379	-1216.46106	-56.26323	34.23653	-1116.69312	-320.38043	1697.16443	-3101.99902	1973.11047	1023.60388	-3140.62012	2012.62524	1022.20386 
97	0.960	-1038.23975	-284.01877	1656.91736	-1130.15930	-350.45395	1661.25842	-1105.68250	-182.79201	1625.71729	-1203.29211	-251.14117	1629.77527	-1135.84473	-141.52072	1432.43140	-1135.21497	-93.83528	1138.21338	-1116.41626	-283.86627	1356.81091	-1113.35828	-318.67114	1202.56934	-1217.78931	-86.91118	1243.05225	-964.34393	-204.73213	1389.80286	-885.98071	-133.50890	1215.41663	-892.51782	-86.90359	1073.01050	-866.36664	-95.52338	959.09491	-873.12323	-146.31541	827.58563	-862.61304	-88.14777	836.86157	-844.26221	-111.07636	757.89197	-1270.94690	-236.66537	1401.29773	-1387.88257	-187.94498	1212.75610	-1406.82751	-203.41476	1086.44934	-1425.79431	-294.51617	999.21613	-1392.24463	-424.95776	955.20630	-1430.38928	-393.66632	927.09857	-1427.30212	-471.19977	890.03094	-1025.88806	-274.44037	931.67920	-1244.22083	-264.14548	931.59875	-1067.29846	-87.28717	939.94904	-1210.04041	-81.05855	954.22888	-961.58704	-324.42322	608.36273	-988.17798	-358.79462	482.35852	-985.38611	-356.71262	296.26849	-1040.96655	-407.62753	78.85162	-1103.60986	-382.95947	40.20111	-1016.48273	-550.90375	83.56100	-1294.21497	-141.35590	610.27344	-1269.27820	-111.60542	451.27786	-1272.04260	-12.63270	304.39291	-1222.92871	66.94420	111.92553	-1172.93005	123.39095	92.29449	-1216.51343	-56.55364	34.12767	-1114.04309	-333.33258	1695.91431	-3101.87622	1973.17114	1023.52002	-3140.68677	2012.62256	1022.17944 
98	0.970	-1035.71155	-296.69809	1655.36450	-1127.38770	-363.46057	1659.99268	-1103.45825	-195.66982	1624.17615	-1200.85498	-264.40518	1628.41406	-1133.38586	-154.81818	1430.68774	-1133.70789	-107.59841	1136.44153	-1114.51111	-297.24658	1355.18591	-1112.00671	-332.18619	1201.11279	-1216.16870	-100.39066	1241.51843	-962.36609	-218.06145	1387.75146	-884.68182	-145.77806	1213.39441	-892.16962	-98.03265	1071.64575	-866.32788	-104.01991	957.74683	-873.26306	-151.80132	825.27942	-862.87976	-94.01397	835.65314	-844.80731	-114.97322	756.06268	-1269.01819	-249.98584	1400.18127	-1386.46558	-201.37514	1212.10254	-1406.17236	-217.05283	1085.90979	-1424.75220	-310.00827	1000.75824	-1390.86682	-441.32852	960.11981	-1428.79260	-410.70676	930.87885	-1425.42529	-489.33234	895.83868	-1025.77734	-289.26859	929.95477	-1243.94141	-277.48370	930.19647	-1065.56897	-101.68172	938.48926	-1208.39685	-94.65881	952.95337	-960.15289	-335.18939	604.92419	-988.76953	-372.61847	480.83472	-985.91748	-376.36862	295.15417	-1041.79858	-433.58194	79.18314	-1104.53406	-409.70776	39.89851	-1017.36664	-576.68097	87.45582	-1294.45264	-152.04004	609.92157	-1269.51611	-120.65935	450.94714	-1272.49353	-18.81020	305.84695	-1223.78198	64.54296	114.65370	-1173.72986	121.59481	96.36294	-1216.65967	-56.84097	34.13289	-1111.23499	-346.13693	1694.65613	-3102.05005	1973.13135	1023.50391	-3140.77515	2012.49182	1022.08380 
99	0.980	-1033.07251	-309.34491	1653.76099	-1124.65759	-376.53171	1658.81567	-1101.05225	-208.67349	1622.29407	-1198.37244	-277.72977	1626.97144	-1131.63074	-167.92656	1429.09436	-1132.21680	-121.46654	1134.60596	-1112.59851	-310.68869	1353.72864	-1110.51086	-345.81543	1199.68848	-1214.40820	-113.85717	1239.90149	-960.29541	-231.39424	1385.65076	-883.20978	-158.06097	1211.36914	-891.66644	-109.31078	1070.25281	-866.12640	-113.08187	956.32428	-873.42120	-158.09511	822.84430	-863.09363	-100.54855	834.42847	-845.32507	-119.89217	754.32269	-1266.96826	-263.17773	1399.03223	-1384.96570	-214.75722	1211.32837	-1405.35730	-230.55388	1085.27295	-1423.59790	-325.09943	1001.89038	-1389.46863	-457.16956	964.44781	-1427.16211	-427.26599	934.26166	-1423.62830	-506.73590	901.11426	-1025.57568	-304.24045	928.16870	-1243.67871	-290.88370	928.72607	-1063.91577	-116.80955	936.79523	-1206.57324	-108.09666	951.49048	-959.40125	-347.36453	602.43134	-989.27515	-386.90326	479.34189	-986.78833	-394.57959	293.97946	-1043.03955	-455.87604	78.97256	-1106.42859	-433.20505	39.22813	-1018.87537	-599.18304	90.21545	-1294.70959	-163.53326	609.41364	-1269.91309	-130.46965	450.39822	-1273.08350	-25.48559	307.43201	-1224.93579	62.07902	117.89468	-1174.96826	118.97818	101.24825	-1216.93542	-57.29792	34.26843	-1108.34180	-358.99088	1693.14307	-3102.14648	1973.07202	1023.45624	-3140.70825	2012.49219	1022.15466 
100	0.990	-1030.50916	-322.57510	1652.30127	-1121.64441	-389.63104	1657.40930	-1098.68030	-221.69667	1620.59924	-1195.75989	-291.04306	1625.49158	-1129.01245	-181.41086	1427.48340	-1130.74060	-135.52174	1132.69458	-1110.54016	-324.28391	1352.30029	-1108.89246	-359.62958	1198.29138	-1212.51184	-127.43195	1238.24463	-958.00641	-244.86552	1383.45166	-881.67719	-170.59776	1209.15967	-890.99316	-120.89970	1068.65430	-865.80591	-122.64659	954.78540	-873.52039	-165.05344	820.46558	-862.82220	-107.83577	833.27698	-845.80933	-125.45788	752.42041	-1264.76868	-276.61661	1397.92798	-1383.52747	-228.03497	1210.55530	-1404.35950	-243.91971	1084.54163	-1422.39148	-339.80069	1002.90186	-1388.08057	-472.48444	968.21375	-1425.29309	-443.00879	936.83527	-1421.76392	-523.42877	905.70123	-1025.48645	-319.32846	926.22418	-1243.42249	-304.53122	927.31158	-1061.85071	-131.31430	935.14386	-1204.59412	-122.20318	949.83942	-959.72095	-361.58658	601.01373	-989.90778	-401.15826	478.22348	-987.93011	-411.26559	292.48047	-1044.85071	-475.05750	78.31004	-1107.77673	-452.64374	38.41499	-1021.16034	-618.51819	91.15509	-1294.73352	-175.74989	608.44373	-1270.44800	-141.15157	449.72702	-1273.77551	-32.80966	309.07379	-1225.99255	59.00013	121.42686	-1176.25659	116.52913	106.56905	-1217.04187	-57.51536	34.05495	-1105.45276	-371.93646	1691.91431	-3102.05859	1973.13586	1023.50494	-3140.72729	2012.50757	1022.09814 
